<svg width="50" height="50" viewBox="0 0 50 50" fill="none" xmlns="http://www.w3.org/2000/svg">
<path fill-rule="evenodd" clip-rule="evenodd" d="M50 25C50 38.8066 38.8066 50 25 50C11.1934 50 0 38.8066 0 25C0 11.1934 11.1934 0 25 0C38.8066 0 50 11.1934 50 25ZM21 9C21 8.44727 21.4473 8 22 8H28C28.5527 8 29 8.44727 29 9V21H41C41.5527 21 42 21.4473 42 22V28C42 28.5527 41.5527 29 41 29H29V41C29 41.5527 28.5527 42 28 42H22C21.4473 42 21 41.5527 21 41V29H9C8.44727 29 8 28.5527 8 28V22C8 21.4473 8.44727 21 9 21H21V9Z" fill="white"/>
</svg>
